<svg width="58" height="58" viewBox="0 0 58 58" fill="none" xmlns="http://www.w3.org/2000/svg">
<g clip-path="url(#clip0_2_971)">
<path d="M29 58C13.0096 58 0.000488281 44.9904 0.000488281 28.9995C0.000488281 13.0091 13.0096 0 29 0C44.9904 0 57.9995 13.0091 57.9995 28.9995C57.9995 44.9904 44.9904 58 29 58ZM29 2.8602C14.587 2.8602 2.86068 14.5865 2.86068 28.9995C2.86068 43.413 14.587 55.1398 29 55.1398C43.413 55.1398 55.1393 43.413 55.1393 28.9995C55.1393 14.5865 43.413 2.8602 29 2.8602Z" fill="black"/>
<path d="M28.9051 47.8773C24.1186 47.8773 20.2249 44.4064 20.2249 40.14H23.0851C23.0851 42.8295 25.696 45.0171 28.9051 45.0171C32.1138 45.0171 34.7242 42.829 34.7242 40.14H37.5844C37.5844 44.406 33.6907 47.8773 28.9051 47.8773Z" fill="black"/>
<path d="M22.1103 31.5661H19.2501C19.2501 28.9743 17.4877 26.8658 15.3211 26.8658C13.1545 26.8658 11.3922 28.9743 11.3922 31.5661H8.53198C8.53198 27.3969 11.5776 24.0056 15.3211 24.0056C19.0647 24.0056 22.1103 27.3969 22.1103 31.5661Z" fill="black"/>
<path d="M49.4676 31.5661H46.6074C46.6074 28.9743 44.845 26.8658 42.6784 26.8658C40.5118 26.8658 38.7495 28.9743 38.7495 31.5661H35.8893C35.8893 27.3969 38.9349 24.0056 42.6784 24.0056C46.422 24.0056 49.4676 27.3969 49.4676 31.5661Z" fill="black"/>
</g>
<defs>
<clipPath id="clip0_2_971">
<rect width="58" height="58" fill="white"/>
</clipPath>
</defs>
</svg>
