<svg width="351" height="99" viewBox="0 0 351 99" fill="none" xmlns="http://www.w3.org/2000/svg">
<g clip-path="url(#clip0_1_112)">
<path d="M224.933 62.352C223.572 62.352 222.458 63.4656 222.458 64.8268V86.8115C222.458 87.0384 222.169 87.389 221.943 87.4302L184.923 93.9885L184.903 84.0686C184.903 83.3467 184.593 82.6662 184.037 82.1918C183.5 81.7175 182.779 81.5112 182.057 81.6144L171.889 83.1199C169.167 83.0374 166.981 80.7894 166.981 78.0465V64.7649C166.981 63.4038 165.867 62.2901 164.506 62.2901H161.062C160.072 62.2901 159.309 62.022 159.061 61.5889C158.793 61.1558 158.917 60.3515 159.391 59.4853L166.713 45.5025C167.352 44.2858 166.878 42.8009 165.661 42.1615C164.444 41.5222 162.959 41.9965 162.32 43.2133L154.999 57.1961C153.699 59.6709 153.637 62.2076 154.834 64.1668C156.009 66.1261 158.298 67.2398 161.083 67.2398H162.052V78.0465C162.052 83.5736 166.548 88.0695 172.075 88.0695C172.199 88.0695 172.322 88.0695 172.446 88.0489L179.974 86.9352V94.5247C179.974 94.6278 179.974 94.7309 179.994 94.8341C180.097 96.0921 180.696 97.2264 181.644 97.9895C182.469 98.6494 183.5 99 184.573 99C184.862 99 185.15 98.9794 185.439 98.9175L222.809 92.2974C225.387 91.8436 227.408 89.4307 227.408 86.8115V64.8268C227.408 63.4656 226.294 62.352 224.933 62.352Z" fill="white"/>
<path d="M169.6 19.785C170.033 20.0943 170.528 20.2387 171.023 20.2387C171.807 20.2387 172.57 19.8675 173.044 19.1869C173.828 18.0732 173.56 16.5265 172.446 15.7428C171.332 14.9591 169.786 15.2272 169.002 16.3409C168.218 17.4545 168.486 19.0013 169.6 19.785Z" fill="white"/>
<path d="M219.2 10.5044C219.612 10.7931 220.107 10.9169 220.581 10.9169C221.386 10.9169 222.17 10.525 222.644 9.82382C223.407 8.68952 223.098 7.14276 221.963 6.40031C220.829 5.63724 219.282 5.94659 218.519 7.08089C217.756 8.21518 218.065 9.74132 219.2 10.5044Z" fill="white"/>
<path d="M164.424 37.5006C164.506 37.5006 164.589 37.5212 164.65 37.5212C165.908 37.5212 167.002 36.5519 167.105 35.2733C167.228 33.9121 166.238 32.6953 164.877 32.5716C163.516 32.4478 162.299 33.4378 162.176 34.7989C162.073 36.1601 163.062 37.3562 164.424 37.5006Z" fill="white"/>
<path d="M177.293 13.4123C177.85 13.4123 178.427 13.2267 178.881 12.8349C179.932 11.948 180.056 10.4013 179.19 9.34948C178.303 8.29768 176.756 8.17394 175.705 9.04013C174.653 9.92694 174.529 11.4737 175.395 12.5255C175.89 13.1236 176.591 13.4123 177.293 13.4123Z" fill="white"/>
<path d="M165.847 28.3025C166.135 28.4056 166.424 28.4469 166.713 28.4469C167.723 28.4469 168.672 27.8282 169.043 26.8382C169.518 25.5596 168.858 24.1366 167.579 23.6622C166.3 23.1879 164.877 23.8478 164.403 25.1265C163.929 26.4051 164.568 27.8282 165.847 28.3025Z" fill="white"/>
<path d="M235.616 46.9874C234.317 46.575 232.914 47.2762 232.502 48.5961C232.089 49.8954 232.791 51.2978 234.111 51.7102C234.358 51.7927 234.626 51.834 234.874 51.834C235.925 51.834 236.895 51.1534 237.225 50.1222C237.637 48.8023 236.915 47.4205 235.616 46.9874Z" fill="white"/>
<path d="M236.668 37.7481C235.307 37.6862 234.131 38.7174 234.069 40.0992C234.007 41.4603 235.039 42.6359 236.42 42.6977C236.462 42.6977 236.503 42.6977 236.544 42.6977C237.864 42.6977 238.957 41.6666 239.019 40.3467C239.081 38.9855 238.029 37.8306 236.668 37.7481Z" fill="white"/>
<path d="M232.234 55.6493C231.079 54.9069 229.553 55.2369 228.81 56.3918C228.068 57.5467 228.398 59.0728 229.553 59.8153C229.965 60.0834 230.44 60.2071 230.893 60.2071C231.698 60.2071 232.502 59.7947 232.976 59.0728C233.719 57.9179 233.389 56.3918 232.234 55.6493Z" fill="white"/>
<path d="M232.77 24.6934C233.141 24.6934 233.533 24.6109 233.884 24.4253C235.1 23.8066 235.595 22.3217 234.977 21.1049C234.358 19.8881 232.873 19.3931 231.656 20.0118C230.44 20.6305 229.945 22.1154 230.563 23.3322C230.996 24.1984 231.863 24.6934 232.77 24.6934Z" fill="white"/>
<path d="M233.409 31.4785C233.657 32.6541 234.688 33.4584 235.822 33.4584C235.987 33.4584 236.152 33.4378 236.338 33.3965C237.678 33.1078 238.545 31.8085 238.256 30.468C237.967 29.1274 236.668 28.2613 235.327 28.55C233.987 28.8387 233.121 30.138 233.409 31.4785Z" fill="white"/>
<path d="M229.429 12.8967C228.522 11.8656 226.954 11.7831 225.944 12.6905C224.933 13.5979 224.83 15.1653 225.737 16.1759C226.232 16.7327 226.913 17.0008 227.593 17.0008C228.171 17.0008 228.769 16.7946 229.223 16.3821C230.233 15.4953 230.336 13.9279 229.429 12.8967Z" fill="white"/>
<path d="M211.466 6.66843C211.734 6.75092 212.002 6.81279 212.27 6.81279C213.301 6.81279 214.25 6.17346 214.601 5.14228C215.034 3.843 214.353 2.4406 213.054 2.00751C211.755 1.57441 210.352 2.25499 209.919 3.55427C209.486 4.81231 210.187 6.23533 211.466 6.66843Z" fill="white"/>
<path d="M185.109 8.40079C185.46 8.40079 185.81 8.3183 186.161 8.17393C187.398 7.59647 187.934 6.11158 187.336 4.87417C186.759 3.63675 185.274 3.10054 184.037 3.69862C182.799 4.27608 182.263 5.76098 182.861 6.99839C183.294 7.8852 184.181 8.40079 185.109 8.40079Z" fill="white"/>
<path d="M203.01 4.95667C203.072 4.95667 203.134 4.95667 203.175 4.95667C204.454 4.95667 205.547 3.96674 205.65 2.64683C205.753 1.28568 204.722 0.110134 203.361 0.00701662C202 -0.0961011 200.804 0.935076 200.721 2.29623C200.618 3.67801 201.649 4.87417 203.01 4.95667Z" fill="white"/>
<path d="M193.915 5.5135C194.06 5.5135 194.225 5.49288 194.39 5.47226C195.73 5.22477 196.617 3.92549 196.369 2.58496C196.122 1.24443 194.823 0.35762 193.482 0.605102C192.142 0.852585 191.255 2.15187 191.502 3.4924C191.709 4.68856 192.76 5.5135 193.915 5.5135Z" fill="white"/>
<path d="M177 42L185 23.7143L193 42L199.857 18L206.714 42L214.143 31.1429L225 42" stroke="white" stroke-width="4" stroke-linejoin="round"/>
</g>
<path d="M2.27557 56V29.8182H19.9176V34.3821H7.81108V40.6207H19.0099V45.1847H7.81108V51.4361H19.9688V56H2.27557ZM24.2163 56V36.3636H29.4066V39.8281H29.6367C30.0458 38.6776 30.7276 37.7699 31.6822 37.1051C32.6367 36.4403 33.7788 36.108 35.1083 36.108C36.4549 36.108 37.6012 36.4446 38.5472 37.1179C39.4933 37.7827 40.1239 38.6861 40.4393 39.8281H40.6438C41.0444 38.7031 41.7688 37.804 42.8171 37.1307C43.8739 36.4489 45.1225 36.108 46.5629 36.108C48.3952 36.108 49.8825 36.6918 51.0245 37.8594C52.1751 39.0185 52.7504 40.6634 52.7504 42.794V56H47.3171V43.8679C47.3171 42.777 47.0273 41.9588 46.4478 41.4134C45.8683 40.8679 45.1438 40.5952 44.2745 40.5952C43.2859 40.5952 42.5146 40.9105 41.9606 41.5412C41.4066 42.1634 41.1296 42.9858 41.1296 44.0085V56H35.8498V43.7528C35.8498 42.7898 35.5728 42.0227 35.0188 41.4517C34.4734 40.8807 33.7532 40.5952 32.8583 40.5952C32.2532 40.5952 31.7077 40.7486 31.2219 41.0554C30.7447 41.3537 30.3654 41.7756 30.0842 42.321C29.8029 42.858 29.6623 43.4886 29.6623 44.2131V56H24.2163ZM65.9244 56.3835C63.9386 56.3835 62.2212 55.9616 60.7724 55.1179C59.332 54.2656 58.2198 53.081 57.4357 51.5639C56.6516 50.0384 56.2596 48.2699 56.2596 46.2585C56.2596 44.2301 56.6516 42.4574 57.4357 40.9403C58.2198 39.4148 59.332 38.2301 60.7724 37.3864C62.2212 36.5341 63.9386 36.108 65.9244 36.108C67.9102 36.108 69.6232 36.5341 71.0636 37.3864C72.5124 38.2301 73.6289 39.4148 74.413 40.9403C75.1971 42.4574 75.5891 44.2301 75.5891 46.2585C75.5891 48.2699 75.1971 50.0384 74.413 51.5639C73.6289 53.081 72.5124 54.2656 71.0636 55.1179C69.6232 55.9616 67.9102 56.3835 65.9244 56.3835ZM65.9499 52.1648C66.8533 52.1648 67.6076 51.9091 68.2127 51.3977C68.8178 50.8778 69.2738 50.1705 69.5806 49.2756C69.896 48.3807 70.0536 47.3622 70.0536 46.2202C70.0536 45.0781 69.896 44.0597 69.5806 43.1648C69.2738 42.2699 68.8178 41.5625 68.2127 41.0426C67.6076 40.5227 66.8533 40.2628 65.9499 40.2628C65.038 40.2628 64.271 40.5227 63.6488 41.0426C63.0352 41.5625 62.5707 42.2699 62.2553 43.1648C61.9485 44.0597 61.7951 45.0781 61.7951 46.2202C61.7951 47.3622 61.9485 48.3807 62.2553 49.2756C62.5707 50.1705 63.0352 50.8778 63.6488 51.3977C64.271 51.9091 65.038 52.1648 65.9499 52.1648ZM89.5749 36.3636V40.4545H77.7496V36.3636H89.5749ZM80.4343 31.6591H85.8803V49.9659C85.8803 50.4687 85.957 50.8608 86.1104 51.142C86.2638 51.4148 86.4769 51.6065 86.7496 51.7173C87.0309 51.8281 87.3548 51.8835 87.7212 51.8835C87.9769 51.8835 88.2326 51.8622 88.4883 51.8196C88.744 51.7685 88.94 51.7301 89.0764 51.7045L89.9329 55.7571C89.6602 55.8423 89.2766 55.9403 88.7823 56.0511C88.288 56.1705 87.6871 56.2429 86.9798 56.2685C85.6673 56.3196 84.5167 56.1449 83.5281 55.7443C82.5479 55.3437 81.7852 54.7216 81.2397 53.8778C80.6942 53.0341 80.4258 51.9687 80.4343 50.6818V31.6591ZM93.1225 56V36.3636H98.5685V56H93.1225ZM95.8583 33.8324C95.0487 33.8324 94.354 33.5639 93.7745 33.027C93.2035 32.4815 92.918 31.8295 92.918 31.071C92.918 30.321 93.2035 29.6776 93.7745 29.1406C94.354 28.5952 95.0487 28.3224 95.8583 28.3224C96.668 28.3224 97.3583 28.5952 97.9293 29.1406C98.5089 29.6776 98.7987 30.321 98.7987 31.071C98.7987 31.8295 98.5089 32.4815 97.9293 33.027C97.3583 33.5639 96.668 33.8324 95.8583 33.8324ZM111.803 56.3835C109.817 56.3835 108.1 55.9616 106.651 55.1179C105.211 54.2656 104.099 53.081 103.315 51.5639C102.531 50.0384 102.138 48.2699 102.138 46.2585C102.138 44.2301 102.531 42.4574 103.315 40.9403C104.099 39.4148 105.211 38.2301 106.651 37.3864C108.1 36.5341 109.817 36.108 111.803 36.108C113.789 36.108 115.502 36.5341 116.942 37.3864C118.391 38.2301 119.508 39.4148 120.292 40.9403C121.076 42.4574 121.468 44.2301 121.468 46.2585C121.468 48.2699 121.076 50.0384 120.292 51.5639C119.508 53.081 118.391 54.2656 116.942 55.1179C115.502 55.9616 113.789 56.3835 111.803 56.3835ZM111.829 52.1648C112.732 52.1648 113.487 51.9091 114.092 51.3977C114.697 50.8778 115.153 50.1705 115.46 49.2756C115.775 48.3807 115.933 47.3622 115.933 46.2202C115.933 45.0781 115.775 44.0597 115.46 43.1648C115.153 42.2699 114.697 41.5625 114.092 41.0426C113.487 40.5227 112.732 40.2628 111.829 40.2628C110.917 40.2628 110.15 40.5227 109.528 41.0426C108.914 41.5625 108.45 42.2699 108.134 43.1648C107.827 44.0597 107.674 45.0781 107.674 46.2202C107.674 47.3622 107.827 48.3807 108.134 49.2756C108.45 50.1705 108.914 50.8778 109.528 51.3977C110.15 51.9091 110.917 52.1648 111.829 52.1648ZM130.455 44.6477V56H125.009V36.3636H130.2V39.8281H130.43C130.864 38.6861 131.593 37.7827 132.616 37.1179C133.638 36.4446 134.879 36.108 136.336 36.108C137.7 36.108 138.888 36.4062 139.903 37.0028C140.917 37.5994 141.705 38.4517 142.268 39.5597C142.83 40.6591 143.112 41.9716 143.112 43.4972V56H137.665V44.4688C137.674 43.267 137.367 42.3295 136.745 41.6562C136.123 40.9744 135.266 40.6335 134.175 40.6335C133.442 40.6335 132.795 40.7912 132.232 41.1065C131.678 41.4219 131.244 41.8821 130.928 42.4872C130.621 43.0838 130.464 43.804 130.455 44.6477Z" fill="white"/>
<path d="M248.278 34.3821V29.8182H269.781V34.3821H261.766V56H256.294V34.3821H248.278ZM271.181 56V36.3636H276.461V39.7898H276.665C277.023 38.571 277.624 37.6506 278.468 37.0284C279.312 36.3977 280.283 36.0824 281.383 36.0824C281.656 36.0824 281.95 36.0994 282.265 36.1335C282.58 36.1676 282.857 36.2145 283.096 36.2741V41.1065C282.84 41.0298 282.487 40.9616 282.035 40.902C281.583 40.8423 281.17 40.8125 280.795 40.8125C279.994 40.8125 279.278 40.9872 278.647 41.3366C278.025 41.6776 277.531 42.1548 277.164 42.7685C276.806 43.3821 276.627 44.0895 276.627 44.8906V56H271.181ZM290.949 56.3707C289.696 56.3707 288.579 56.1534 287.599 55.7188C286.619 55.2756 285.843 54.6236 285.272 53.7628C284.71 52.8935 284.429 51.8111 284.429 50.5156C284.429 49.4247 284.629 48.5085 285.029 47.767C285.43 47.0256 285.975 46.429 286.666 45.9773C287.356 45.5256 288.14 45.1847 289.018 44.9545C289.904 44.7244 290.833 44.5625 291.805 44.4688C292.947 44.3494 293.868 44.2386 294.566 44.1364C295.265 44.0256 295.772 43.8636 296.088 43.6506C296.403 43.4375 296.561 43.1222 296.561 42.7045V42.6278C296.561 41.8182 296.305 41.1918 295.794 40.7486C295.291 40.3054 294.575 40.0838 293.646 40.0838C292.666 40.0838 291.886 40.3011 291.306 40.7358C290.727 41.1619 290.343 41.6989 290.156 42.3466L285.119 41.9375C285.375 40.7443 285.877 39.7131 286.627 38.8438C287.377 37.9659 288.345 37.2926 289.529 36.8239C290.723 36.3466 292.103 36.108 293.672 36.108C294.762 36.108 295.806 36.2358 296.804 36.4915C297.809 36.7472 298.7 37.1435 299.475 37.6804C300.26 38.2173 300.877 38.9077 301.329 39.7514C301.781 40.5866 302.007 41.5881 302.007 42.7557V56H296.842V53.277H296.689C296.373 53.8906 295.951 54.4318 295.423 54.9006C294.895 55.3608 294.26 55.723 293.518 55.9872C292.777 56.2429 291.92 56.3707 290.949 56.3707ZM292.508 52.6122C293.309 52.6122 294.017 52.4545 294.63 52.1392C295.244 51.8153 295.725 51.3807 296.075 50.8352C296.424 50.2898 296.599 49.6719 296.599 48.9815V46.8977C296.429 47.0085 296.194 47.1108 295.896 47.2045C295.606 47.2898 295.278 47.3707 294.912 47.4474C294.545 47.5156 294.179 47.5795 293.812 47.6392C293.446 47.6903 293.113 47.7372 292.815 47.7798C292.176 47.8736 291.618 48.0227 291.14 48.2273C290.663 48.4318 290.292 48.7088 290.028 49.0582C289.764 49.3991 289.632 49.8253 289.632 50.3366C289.632 51.0781 289.9 51.6449 290.437 52.0369C290.983 52.4205 291.673 52.6122 292.508 52.6122ZM315.104 56.3835C313.093 56.3835 311.363 55.9574 309.914 55.1051C308.473 54.2443 307.365 53.0511 306.59 51.5256C305.823 50 305.439 48.2443 305.439 46.2585C305.439 44.2472 305.827 42.483 306.603 40.9659C307.387 39.4403 308.499 38.2514 309.939 37.3991C311.38 36.5384 313.093 36.108 315.078 36.108C316.792 36.108 318.292 36.419 319.578 37.0412C320.865 37.6634 321.884 38.5369 322.634 39.6619C323.384 40.7869 323.797 42.108 323.874 43.625H318.735C318.59 42.6449 318.206 41.8565 317.584 41.2599C316.971 40.6548 316.165 40.3523 315.168 40.3523C314.324 40.3523 313.587 40.5824 312.956 41.0426C312.334 41.4943 311.848 42.1548 311.499 43.0241C311.15 43.8935 310.975 44.946 310.975 46.1818C310.975 47.4347 311.145 48.5 311.486 49.3778C311.836 50.2557 312.326 50.9247 312.956 51.3849C313.587 51.8452 314.324 52.0753 315.168 52.0753C315.79 52.0753 316.348 51.9474 316.843 51.6918C317.346 51.4361 317.759 51.0653 318.083 50.5795C318.415 50.0852 318.632 49.4929 318.735 48.8026H323.874C323.789 50.3026 323.38 51.6236 322.647 52.7656C321.922 53.8991 320.921 54.7855 319.642 55.4247C318.364 56.0639 316.851 56.3835 315.104 56.3835ZM332.295 50.3494L332.308 43.8168H333.101L339.391 36.3636H345.642L337.192 46.233H335.901L332.295 50.3494ZM327.361 56V29.8182H332.807V56H327.361ZM339.634 56L333.855 47.4474L337.486 43.5994L346.013 56H339.634Z" fill="white"/>
<defs>
<clipPath id="clip0_1_112">
<rect width="99" height="99" fill="white" transform="translate(147)"/>
</clipPath>
</defs>
</svg>
