<svg width="74" height="74" viewBox="0 0 74 74" fill="none" xmlns="http://www.w3.org/2000/svg">
<path fill-rule="evenodd" clip-rule="evenodd" d="M37 64.75C52.3259 64.75 64.75 52.3259 64.75 37C64.75 21.6741 52.3259 9.25001 37 9.25001C21.6742 9.25001 9.25002 21.6741 9.25002 37C9.25002 52.3259 21.6742 64.75 37 64.75ZM37 67.8333C54.0288 67.8333 67.8334 54.0288 67.8334 37C67.8334 19.9712 54.0288 6.16667 37 6.16667C19.9712 6.16667 6.16669 19.9712 6.16669 37C6.16669 54.0288 19.9712 67.8333 37 67.8333Z" fill="#333333"/>
<path d="M29.2917 30.8333C29.2917 32.5363 27.9113 33.9167 26.2083 33.9167C24.5054 33.9167 23.125 32.5363 23.125 30.8333C23.125 29.1304 24.5054 27.75 26.2083 27.75C27.9113 27.75 29.2917 29.1304 29.2917 30.8333Z" fill="#333333"/>
<path d="M50.875 30.8333C50.875 32.5363 49.4946 33.9167 47.7916 33.9167C46.0887 33.9167 44.7083 32.5363 44.7083 30.8333C44.7083 29.1304 46.0887 27.75 47.7916 27.75C49.4946 27.75 50.875 29.1304 50.875 30.8333Z" fill="#333333"/>
<path fill-rule="evenodd" clip-rule="evenodd" d="M24.6667 47.7917C24.6667 46.9402 25.3569 46.25 26.2084 46.25H47.7917C48.6431 46.25 49.3334 46.9402 49.3334 47.7917C49.3334 48.6431 48.6431 49.3333 47.7917 49.3333H26.2084C25.3569 49.3333 24.6667 48.6431 24.6667 47.7917Z" fill="#333333"/>
</svg>
