<svg width="59" height="59" viewBox="0 0 59 59" fill="none" xmlns="http://www.w3.org/2000/svg">
<g clip-path="url(#clip0_2_950)">
<path d="M29.5002 59C13.234 59 0.000488281 45.7665 0.000488281 29.4998C0.000488281 13.2335 13.234 0 29.5002 0C45.7665 0 59 13.2335 59 29.4998C59 45.7665 45.7665 59 29.5002 59ZM29.5002 2.90953C14.8386 2.90953 2.91002 14.8381 2.91002 29.4998C2.91002 44.1619 14.8386 56.0905 29.5002 56.0905C44.1619 56.0905 56.0905 44.1619 56.0905 29.4998C56.0905 14.8381 44.1624 2.90953 29.5002 2.90953Z" fill="black"/>
<path d="M13.01 33.5561C15.25 33.5561 17.0659 31.7402 17.0659 29.5002C17.0659 27.2602 15.25 25.4444 13.01 25.4444C10.77 25.4444 8.9541 27.2602 8.9541 29.5002C8.9541 31.7402 10.77 33.5561 13.01 33.5561Z" fill="black"/>
<path d="M45.991 33.5561C48.231 33.5561 50.0469 31.7402 50.0469 29.5002C50.0469 27.2602 48.231 25.4444 45.991 25.4444C43.751 25.4444 41.9351 27.2602 41.9351 29.5002C41.9351 31.7402 43.751 33.5561 45.991 33.5561Z" fill="black"/>
<path d="M38.2332 47.2494H35.3237C35.3237 44.5134 32.6678 42.2881 29.4037 42.2881C26.1397 42.2881 23.4838 44.5139 23.4838 47.2494H20.5743C20.5743 42.9093 24.5351 39.3786 29.4037 39.3786C34.2724 39.3786 38.2332 42.9088 38.2332 47.2494Z" fill="black"/>
</g>
<defs>
<clipPath id="clip0_2_950">
<rect width="59" height="59" fill="white"/>
</clipPath>
</defs>
</svg>
